<svg width="976" height="272" viewBox="0 0 976 272" fill="none" xmlns="http://www.w3.org/2000/svg">
<g filter="url(#filter0_d_2_4)">
<path d="M139.403 132.629L95 192.699L97.565 186.329L95.8131 188.699L103.062 170.698L114.538 153.318L117.164 141.176L115.746 143.386L95.209 169.457L84.3364 173.181L71.0477 182.492L65.6114 198.01L52.9267 224.08L32.9936 238.357L43.2621 232.77L23.3291 252.012L29.3694 243.322L4 261.944L65.6114 169.457H81.9203L90.3767 157.042L112.122 112.971L118.766 104.281L130.847 114.109L133.867 104.281L145.948 80.0729L163.465 55.2441L171.317 36.6225L179.17 21.7252L194.875 13.6558L201.519 0L206.955 12.4144L211.183 33.5189L231.721 73.245L249.589 98.3405L253.635 90.2072L261.487 84L266.923 89.5865L275.38 100.139L282.024 120.622L287.891 131.752L301.788 121.04L317.493 142.145L335.614 158.904L349.507 180.009L375.48 211.666L396.017 246.426L406.89 262.565L383.937 235.874L371.856 220.356L355.547 198.631L329.574 160.146L310.245 146.49L314.473 147.731V143.386L300.58 129.731L290.786 136.835L306.186 159.107L292.293 149.176L276.588 139.865L287.461 144.831L300.749 152.9L290.481 139.865L282.024 128.071L274.172 106.967L262.695 90.2072L254.843 138.003L262.695 134.899L266.319 163.452L260.279 155.383L261.487 170.28L239.742 152.9L222.225 170.28L233.702 152.9L202.896 175.867L208.332 167.177L222.225 155.383L230.682 142.968L239.742 118.14L245.052 107.463C234.114 101.648 227.569 96.395 216.411 82.8315C215.036 81.9401 214.435 80.9822 216.411 71.0378C218.025 63.2714 212.69 53.6408 197.082 31.3117L169.551 76.4682L185.814 63.9342L191.854 112.35L206.955 86.2801L205.201 91.9053L206.142 90.2801L191.041 138.696V128.144L159.028 184.009L161.68 176.8L159.841 180.009L174.826 139.275L165.672 158.559L166.891 153.703L166.485 154.559L175.222 119.769L169.296 103.936L133.054 148.007L136.642 140.633L133.867 144.007L139.403 132.629Z" fill="white"/>
<path fill-rule="evenodd" clip-rule="evenodd" d="M459.712 160.502C459.712 161.951 459.436 163.31 458.882 164.579C458.329 165.849 457.572 166.964 456.612 167.924C455.668 168.868 454.561 169.617 453.292 170.17C452.022 170.723 450.663 171 449.214 171H431.709V135.99H449.214C450.663 135.99 452.022 136.267 453.292 136.82C454.561 137.374 455.668 138.131 456.612 139.091C457.572 140.035 458.329 141.142 458.882 142.411C459.436 143.681 459.712 145.04 459.712 146.488C459.712 147.139 459.623 147.807 459.444 148.49C459.265 149.174 459.013 149.833 458.687 150.468C458.361 151.103 457.971 151.68 457.515 152.201C457.059 152.722 456.555 153.153 456.001 153.495C456.571 153.804 457.084 154.228 457.54 154.765C457.995 155.285 458.386 155.863 458.711 156.498C459.037 157.133 459.281 157.8 459.444 158.5C459.623 159.184 459.712 159.851 459.712 160.502ZM438.716 163.993H449.214C449.703 163.993 450.158 163.904 450.582 163.725C451.005 163.546 451.371 163.301 451.68 162.992C452.006 162.667 452.258 162.292 452.437 161.869C452.616 161.446 452.706 160.99 452.706 160.502C452.706 160.014 452.616 159.558 452.437 159.135C452.258 158.712 452.006 158.345 451.68 158.036C451.371 157.711 451.005 157.458 450.582 157.279C450.158 157.1 449.703 157.011 449.214 157.011H438.716V163.993ZM438.716 150.004H449.214C449.703 150.004 450.158 149.914 450.582 149.735C451.005 149.556 451.371 149.312 451.68 149.003C452.006 148.677 452.258 148.303 452.437 147.88C452.616 147.44 452.706 146.977 452.706 146.488C452.706 146 452.616 145.544 452.437 145.121C452.258 144.698 452.006 144.332 451.68 144.022C451.371 143.697 451.005 143.445 450.582 143.266C450.158 143.087 449.703 142.997 449.214 142.997H438.716V150.004Z" fill="white"/>
<path d="M479.366 157.011C479.366 158.948 479 160.771 478.267 162.479C477.535 164.172 476.534 165.653 475.264 166.923C474.011 168.176 472.53 169.169 470.821 169.901C469.128 170.634 467.313 171 465.376 171C464.205 171 463.033 170.854 461.861 170.561V163.041C462.382 163.35 462.943 163.586 463.545 163.749C464.148 163.912 464.758 163.993 465.376 163.993C466.337 163.993 467.24 163.814 468.086 163.456C468.949 163.082 469.698 162.577 470.333 161.942C470.967 161.308 471.464 160.567 471.822 159.721C472.196 158.874 472.383 157.971 472.383 157.011V135.99H479.366V157.011Z" fill="white"/>
<path d="M509.468 171H485.469V135.99H509.468V142.997H492.476V150.004H503.975V157.011H492.476V163.993H509.468V171Z" fill="white"/>
<path d="M538.887 171H514.375V135.99H521.382V163.993H538.887V171Z" fill="white"/>
<path fill-rule="evenodd" clip-rule="evenodd" d="M570.162 171H563.155V163.993H549.141V171H542.159V150.004C542.159 148.067 542.525 146.252 543.257 144.56C543.99 142.851 544.983 141.361 546.236 140.092C547.505 138.822 548.987 137.821 550.679 137.089C552.388 136.356 554.211 135.99 556.148 135.99C558.085 135.99 559.9 136.356 561.592 137.089C563.301 137.821 564.791 138.822 566.06 140.092C567.33 141.361 568.331 142.851 569.063 144.56C569.795 146.252 570.162 148.067 570.162 150.004V171ZM563.155 157.011V150.004C563.155 149.044 562.968 148.14 562.593 147.294C562.235 146.431 561.739 145.683 561.104 145.048C560.469 144.413 559.721 143.917 558.858 143.559C558.012 143.184 557.108 142.997 556.148 142.997C555.188 142.997 554.276 143.184 553.414 143.559C552.567 143.917 551.827 144.413 551.192 145.048C550.557 145.683 550.053 146.431 549.678 147.294C549.32 148.14 549.141 149.044 549.141 150.004V157.011H563.155Z" fill="white"/>
<path d="M574.19 146.488C574.19 145.04 574.467 143.681 575.02 142.411C575.573 141.142 576.322 140.035 577.266 139.091C578.226 138.131 579.341 137.374 580.611 136.82C581.88 136.267 583.239 135.99 584.688 135.99H600.752V142.997H584.688C584.2 142.997 583.744 143.087 583.321 143.266C582.898 143.445 582.523 143.697 582.198 144.022C581.888 144.332 581.644 144.698 581.465 145.121C581.286 145.544 581.197 146 581.197 146.488C581.197 146.977 581.286 147.44 581.465 147.88C581.644 148.303 581.888 148.677 582.198 149.003C582.523 149.312 582.898 149.556 583.321 149.735C583.744 149.914 584.2 150.004 584.688 150.004H591.695C593.143 150.004 594.502 150.281 595.772 150.834C597.058 151.371 598.173 152.12 599.117 153.08C600.077 154.024 600.826 155.139 601.363 156.425C601.916 157.694 602.193 159.053 602.193 160.502C602.193 161.951 601.916 163.31 601.363 164.579C600.826 165.849 600.077 166.964 599.117 167.924C598.173 168.868 597.058 169.617 595.772 170.17C594.502 170.723 593.143 171 591.695 171H576.143V163.993H591.695C592.183 163.993 592.639 163.904 593.062 163.725C593.485 163.546 593.851 163.301 594.161 162.992C594.486 162.667 594.738 162.292 594.917 161.869C595.096 161.446 595.186 160.99 595.186 160.502C595.186 160.014 595.096 159.558 594.917 159.135C594.738 158.712 594.486 158.345 594.161 158.036C593.851 157.711 593.485 157.458 593.062 157.279C592.639 157.1 592.183 157.011 591.695 157.011H584.688C583.239 157.011 581.88 156.734 580.611 156.181C579.341 155.627 578.226 154.879 577.266 153.935C576.322 152.974 575.573 151.859 575.02 150.59C574.467 149.304 574.19 147.937 574.19 146.488Z" fill="white"/>
<path d="M588.35 133.891L581.49 127.689L584.249 124.198L588.179 127.763L591.841 124.345L594.844 127.641L588.35 133.891Z" fill="white"/>
<path d="M634.81 171H627.315L613.814 147.953V171H606.807V135.99H614.302L627.803 159.062V135.99H634.81V171Z" fill="white"/>
<path d="M648.335 171H641.329V135.99H648.335V171Z" fill="white"/>
<path d="M682.808 167.411C681.18 168.811 679.358 169.885 677.339 170.634C675.321 171.382 673.23 171.757 671.065 171.757C669.405 171.757 667.802 171.537 666.255 171.098C664.725 170.674 663.285 170.072 661.934 169.291C660.599 168.493 659.379 167.541 658.272 166.435C657.165 165.328 656.213 164.107 655.416 162.772C654.634 161.422 654.024 159.981 653.584 158.451C653.161 156.905 652.95 155.302 652.95 153.642C652.95 151.981 653.161 150.378 653.584 148.832C654.024 147.286 654.634 145.845 655.416 144.511C656.213 143.16 657.165 141.931 658.272 140.824C659.379 139.717 660.599 138.773 661.934 137.992C663.285 137.195 664.725 136.584 666.255 136.161C667.802 135.722 669.405 135.502 671.065 135.502C673.23 135.502 675.321 135.876 677.339 136.625C679.358 137.357 681.18 138.432 682.808 139.848L679.097 145.951C678.072 144.844 676.859 143.998 675.459 143.412C674.06 142.81 672.595 142.509 671.065 142.509C669.519 142.509 668.07 142.802 666.719 143.388C665.368 143.974 664.188 144.771 663.179 145.78C662.17 146.773 661.373 147.953 660.787 149.32C660.201 150.671 659.908 152.112 659.908 153.642C659.908 155.172 660.201 156.612 660.787 157.963C661.373 159.298 662.17 160.469 663.179 161.479C664.188 162.488 665.368 163.285 666.719 163.871C668.07 164.457 669.519 164.75 671.065 164.75C672.595 164.75 674.06 164.457 675.459 163.871C676.859 163.269 678.072 162.414 679.097 161.308L682.808 167.411Z" fill="white"/>
<path fill-rule="evenodd" clip-rule="evenodd" d="M714.498 171H707.491V163.993H693.477V171H686.495V150.004C686.495 148.067 686.861 146.252 687.593 144.56C688.326 142.851 689.319 141.361 690.572 140.092C691.841 138.822 693.322 137.821 695.015 137.089C696.724 136.356 698.547 135.99 700.484 135.99C702.421 135.99 704.236 136.356 705.928 137.089C707.637 137.821 709.126 138.822 710.396 140.092C711.666 141.361 712.667 142.851 713.399 144.56C714.131 146.252 714.498 148.067 714.498 150.004V171ZM707.491 157.011V150.004C707.491 149.044 707.304 148.14 706.929 147.294C706.571 146.431 706.075 145.683 705.44 145.048C704.805 144.413 704.056 143.917 703.194 143.559C702.347 143.184 701.444 142.997 700.484 142.997C699.524 142.997 698.612 143.184 697.75 143.559C696.903 143.917 696.163 144.413 695.528 145.048C694.893 145.683 694.388 146.431 694.014 147.294C693.656 148.14 693.477 149.044 693.477 150.004V157.011H707.491Z" fill="white"/>
<path d="M813.348 254.816C810.092 257.616 806.447 259.764 802.41 261.262C798.374 262.759 794.191 263.508 789.861 263.508C786.541 263.508 783.335 263.068 780.242 262.189C777.182 261.343 774.301 260.139 771.6 258.576C768.93 256.981 766.489 255.077 764.275 252.863C762.062 250.65 760.158 248.208 758.562 245.539C757 242.837 755.779 239.956 754.9 236.896C754.054 233.804 753.631 230.598 753.631 227.277C753.631 223.957 754.054 220.751 754.9 217.658C755.779 214.566 757 211.685 758.562 209.016C760.158 206.314 762.062 203.856 764.275 201.643C766.489 199.429 768.93 197.541 771.6 195.979C774.301 194.383 777.182 193.163 780.242 192.316C783.335 191.438 786.541 190.998 789.861 190.998C794.191 190.998 798.374 191.747 802.41 193.244C806.447 194.709 810.092 196.857 813.348 199.689L805.926 211.896C803.875 209.683 801.45 207.99 798.65 206.818C795.851 205.614 792.921 205.012 789.861 205.012C786.769 205.012 783.872 205.598 781.17 206.77C778.468 207.941 776.108 209.536 774.09 211.555C772.072 213.54 770.477 215.9 769.305 218.635C768.133 221.337 767.547 224.217 767.547 227.277C767.547 230.337 768.133 233.218 769.305 235.92C770.477 238.589 772.072 240.933 774.09 242.951C776.108 244.969 778.468 246.564 781.17 247.736C783.872 248.908 786.769 249.494 789.861 249.494C792.921 249.494 795.851 248.908 798.65 247.736C801.45 246.532 803.875 244.823 805.926 242.609L813.348 254.816Z" fill="white"/>
<path d="M789.568 187.385L775.848 174.982L781.365 168L789.227 175.129L796.551 168.293L802.557 174.885L789.568 187.385Z" fill="white"/>
<path d="M468.914 261.994L491.912 191.975H475.896L461.883 238.703L447.918 191.975H432L454.9 261.994H468.914Z" fill="white"/>
<path d="M498.65 261.994H546.648V247.98H512.664V234.016H535.662V220.002H512.664V205.988H546.648V191.975H498.65V261.994Z" fill="white"/>
<path d="M605.486 261.994H556.463V191.975H570.477V247.98H605.486V261.994Z" fill="white"/>
<path d="M612.811 261.994H626.824V191.975H612.811V261.994Z" fill="white"/>
<path d="M653.875 261.994H639.861V191.975H653.875V226.984L679.949 191.975H695.867L673.748 221.516L695.867 261.994H679.949L664.568 233.674L653.875 247.98V261.994Z" fill="white"/>
<path d="M701.775 261.994H715.789V191.975H701.775V261.994Z" fill="white"/>
<path fill-rule="evenodd" clip-rule="evenodd" d="M862.713 261.994H876.727V220.002C876.727 216.128 875.994 212.499 874.529 209.113C873.064 205.695 871.062 202.717 868.523 200.178C865.984 197.639 863.006 195.637 859.588 194.172C856.202 192.707 852.573 191.975 848.699 191.975C844.826 191.975 841.18 192.707 837.762 194.172C834.376 195.637 831.414 197.639 828.875 200.178C826.368 202.717 824.383 205.695 822.918 209.113C821.453 212.499 820.721 216.128 820.721 220.002V261.994H834.686V247.98H862.713V261.994ZM862.713 220.002V234.016H834.686V220.002C834.686 218.081 835.044 216.275 835.76 214.582C836.508 212.857 837.518 211.359 838.787 210.09C840.057 208.82 841.538 207.827 843.23 207.111C844.956 206.363 846.779 205.988 848.699 205.988C850.62 205.988 852.426 206.363 854.119 207.111C855.844 207.827 857.342 208.82 858.611 210.09C859.881 211.359 860.874 212.857 861.59 214.582C862.339 216.275 862.713 218.081 862.713 220.002Z" fill="white"/>
<path d="M902.898 261.994H888.885V191.975H902.898V261.994Z" fill="white"/>
<path fill-rule="evenodd" clip-rule="evenodd" d="M915.936 261.994H929.949V247.98L945.623 247.883L951.727 261.994H966.619L958.855 243.684C960.874 242.414 962.697 240.917 964.324 239.191C965.952 237.466 967.319 235.578 968.426 233.527C969.565 231.477 970.428 229.312 971.014 227.033C971.632 224.755 971.941 222.411 971.941 220.002C971.941 217.43 971.6 214.956 970.916 212.58C970.265 210.204 969.321 207.974 968.084 205.891C966.88 203.807 965.415 201.919 963.689 200.227C961.997 198.501 960.109 197.036 958.025 195.832C955.975 194.595 953.761 193.651 951.385 193C949.008 192.316 946.534 191.975 943.963 191.975H915.936V261.994ZM943.963 234.016H929.949V205.988H943.963C945.883 205.988 947.69 206.363 949.383 207.111C951.076 207.827 952.557 208.82 953.826 210.09C955.096 211.359 956.089 212.857 956.805 214.582C957.553 216.275 957.928 218.081 957.928 220.002C957.928 221.923 957.553 223.745 956.805 225.471C956.089 227.163 955.096 228.645 953.826 229.914C952.557 231.184 951.076 232.193 949.383 232.941C947.69 233.658 945.883 234.016 943.963 234.016Z" fill="white"/>
</g>
<defs>
<filter id="filter0_d_2_4" x="0" y="0" width="975.941" height="271.508" filterUnits="userSpaceOnUse" color-interpolation-filters="sRGB">
<feFlood flood-opacity="0" result="BackgroundImageFix"/>
<feColorMatrix in="SourceAlpha" type="matrix" values="0 0 0 0 0 0 0 0 0 0 0 0 0 0 0 0 0 0 127 0" result="hardAlpha"/>
<feOffset dy="4"/>
<feGaussianBlur stdDeviation="2"/>
<feComposite in2="hardAlpha" operator="out"/>
<feColorMatrix type="matrix" values="0 0 0 0 0 0 0 0 0 0 0 0 0 0 0 0 0 0 0.25 0"/>
<feBlend mode="normal" in2="BackgroundImageFix" result="effect1_dropShadow_2_4"/>
<feBlend mode="normal" in="SourceGraphic" in2="effect1_dropShadow_2_4" result="shape"/>
</filter>
</defs>
</svg>
